<mxfile host="app.diagrams.net" modified="2023-05-01T01:58:43.698Z" agent="Mozilla/5.0 (X11; Ubuntu; Linux x86_64; rv:109.0) Gecko/20100101 Firefox/112.0" etag="phtBH4w-xb0kvZxwp9rl" version="21.2.3">
  <diagram name="PÃ¡gina-1" id="xNJmxCTY1-LuwYsSsFdq">
    <mxGraphModel dx="1434" dy="718" grid="0" gridSize="10" guides="1" tooltips="1" connect="1" arrows="1" fold="1" page="1" pageScale="1" pageWidth="1169" pageHeight="827" background="none" math="0" shadow="0">
      <root>
        <mxCell id="0" />
        <mxCell id="1" parent="0" />
        <mxCell id="I1iFkmquDHzmgoYZS0g_-19" value="" style="rounded=0;whiteSpace=wrap;html=1;" parent="1" vertex="1">
          <mxGeometry x="2" y="53" width="1270" height="700" as="geometry" />
        </mxCell>
        <mxCell id="I1iFkmquDHzmgoYZS0g_-6" value="localhost -&amp;gt; 127.0.0.1" style="rounded=0;whiteSpace=wrap;html=1;verticalAlign=top;" parent="1" vertex="1">
          <mxGeometry x="32" y="93" width="570" height="620" as="geometry" />
        </mxCell>
        <mxCell id="I1iFkmquDHzmgoYZS0g_-4" value="BACK END&lt;br&gt;127.0.0.1:8900" style="image;aspect=fixed;perimeter=ellipsePerimeter;html=1;align=center;shadow=0;dashed=0;spacingTop=3;image=img/lib/active_directory/windows_server.svg;" parent="1" vertex="1">
          <mxGeometry x="373" y="313" width="155.8" height="190" as="geometry" />
        </mxCell>
        <mxCell id="I1iFkmquDHzmgoYZS0g_-5" value="" style="sketch=0;html=1;dashed=0;whitespace=wrap;fillColor=#2875E2;strokeColor=#ffffff;points=[[0.005,0.63,0],[0.1,0.2,0],[0.9,0.2,0],[0.5,0,0],[0.995,0.63,0],[0.72,0.99,0],[0.5,1,0],[0.28,0.99,0]];verticalLabelPosition=bottom;align=center;verticalAlign=top;shape=mxgraph.kubernetes.icon;prIcon=api" parent="1" vertex="1">
          <mxGeometry x="442" y="308" width="190" height="100" as="geometry" />
        </mxCell>
        <mxCell id="I1iFkmquDHzmgoYZS0g_-7" value="" style="shape=image;verticalLabelPosition=bottom;labelBackgroundColor=default;verticalAlign=top;aspect=fixed;imageAspect=0;image=https://upload.wikimedia.org/wikipedia/commons/thumb/3/3c/Flask_logo.svg/1200px-Flask_logo.svg.png;" parent="1" vertex="1">
          <mxGeometry x="423" y="603" width="127.65" height="50" as="geometry" />
        </mxCell>
        <mxCell id="I1iFkmquDHzmgoYZS0g_-9" value="INTERNET" style="image;aspect=fixed;perimeter=ellipsePerimeter;html=1;align=center;shadow=0;dashed=0;spacingTop=3;image=img/lib/active_directory/internet_cloud.svg;" parent="1" vertex="1">
          <mxGeometry x="722" y="358" width="111.11" height="70" as="geometry" />
        </mxCell>
        <mxCell id="I1iFkmquDHzmgoYZS0g_-10" value="" style="shape=flexArrow;endArrow=classic;startArrow=classic;html=1;rounded=0;" parent="1" edge="1">
          <mxGeometry width="100" height="100" relative="1" as="geometry">
            <mxPoint x="606" y="397.5" as="sourcePoint" />
            <mxPoint x="704.89" y="397.5" as="targetPoint" />
          </mxGeometry>
        </mxCell>
        <mxCell id="I1iFkmquDHzmgoYZS0g_-12" value="FRONT END&lt;br&gt;127.0.0.1:5500" style="image;aspect=fixed;perimeter=ellipsePerimeter;html=1;align=center;shadow=0;dashed=0;spacingTop=3;image=img/lib/active_directory/windows_server.svg;" parent="1" vertex="1">
          <mxGeometry x="112" y="313" width="155.8" height="190" as="geometry" />
        </mxCell>
        <mxCell id="I1iFkmquDHzmgoYZS0g_-15" value="" style="shape=flexArrow;endArrow=classic;startArrow=classic;html=1;rounded=0;" parent="1" edge="1">
          <mxGeometry width="100" height="100" relative="1" as="geometry">
            <mxPoint x="274.11" y="397.40999999999997" as="sourcePoint" />
            <mxPoint x="373" y="397.40999999999997" as="targetPoint" />
          </mxGeometry>
        </mxCell>
        <mxCell id="6p-bFxe-tjWp9Cqry7o3-9" value="webpay3gint.transbank.cl" style="rounded=0;whiteSpace=wrap;html=1;verticalAlign=top;" vertex="1" parent="1">
          <mxGeometry x="952" y="93" width="300" height="620" as="geometry" />
        </mxCell>
        <mxCell id="I1iFkmquDHzmgoYZS0g_-16" value="" style="shape=image;verticalLabelPosition=bottom;labelBackgroundColor=default;verticalAlign=top;aspect=fixed;imageAspect=0;image=data:image/png,iVBORw0KGgoAAAANSUhEUgAAAOEAAADhCAMAAAAJbSJIAAAAjVBMVEX33x4AAAD/5h+OgBF4bA7/6B/64h764R5dVAv23h65pxZkWgxJQgnt1h3cxxvWwRrNuRmhkRMUEgI1MAZyZw7kzhy/rBdPRwnEsRimlhTq0xyaixMxLAZNRgl7bw+FeBA/OQhWTQogHQSyoRUtKQWMfhEcGQNsYg0QDgImIwWklBStnRUICAGVhxIYFgMPifukAAAG3ElEQVR4nO2ca3uiOhRGIW2SohVtveNYb+1MO9b5/z/vgD3WC3tDgmAy57zrWx+VZpGQhGTvBAEAAAAAAAAAAAAAAAAAAAAAAAAAAAAAAAAAAAAAAAAAAAAAAAAAAAAAAAAAAAAAAAAAAAAAAAAA4NFKCHlACKVcF4jgWMATjAqqhVRxa3e/6n+s1+vX5er+btMNUs2mi2yHmK0ecqym5aVUcvj7IcwznnWF0DcouSninihl+CbKfhZtH6kf7nneJdIfR9rwrthQRG+s3hcvQ3kjgVIqGCoxK/HLWESePI/2hiLuGwim9PyoRmtDOTXzy67ihaKtIf19hrbyoMOxNBTUAMEz1u4V7QxF20owDOdlw07zWBnKhaVg2lCdP4s2hmJjLZhOHlwrWhjqYQXBMBw5bqgWhpKfpxWSuO1tzA3VqJpgOHbbTs0NxY+KhuHGaTs1NlSTqoJh2HEg9o2xoRxXFlxEDsS+MTXUCW/wOljs3gbcfLzf/TueQ/HECLxPEykyZNSiOtuZ61UNU0O5ogVfguOShZKtz4uP50Pn0zZTw4gWnJ23QBGdV+PWg9UMQ0PVJQV/XT5iWs2Pn7Y7ziswMDdskYadXBXpaH34cORBBQbGhuKO+toL0Uvq+N/Pgr9rnUa8UF8bURLid/rJhyeLNIG54S/qa0OyGcpleOfR8r6hoSRf7um3Bt11PMafc5UhXYeBB4szJ1zVSideqTBc1dM8+TDelWFqSK5BLX163jhMDemJd8+fLpPFdE5DL2F8BP4/iYaGh5nKJXOPBj4G43d82jDsJ773Nte+H4Zhy2zX3xnG7/j8rui467Wj8ToN8yDuafvsaL7W9lqgGI4n3joaG4qSvd8fm8CrIJNvzNe8mZWa018lPlakxar+rlQxbPdcrx3msdldKzdMx8eN8GyAtDA03Hx6/h155WizByzJl0Tq5z45Wu3jR8+GiuEs8MbRyrBw2L9g48vYYRlt0jNXdL3ndMA2YshCMRx4EbxnHfVFb2DQPE88qEbryD2VfFg4vriPbLOPvlSRTejXo/OWWiVGWNrERj0nf8ke8PmPOjbVOHSrWMkw0HL000LR6bNYzTB9GhUXupDnOb+RekOqGmZ79iYB7XseXU7hqhumv9VPhhNVlyGY1xhmjq2lkWLXXW9znWEWQ9M1eadaumun1xpmjgkZxnAOueV/E643zJLY9LYsNLPv7EmswzC7jJiURBA724iryXD/QBZOdAauKrE2w8wxLnJ0FWRao2E2mevyWV+ummmthlnmHtuvVr7mldRsmL5acfHgK0cPYu2G/DrHf8YwEFva0FHEfgOGXFi/o7lpE4ZMaoajGDH7tTZdPrDRW42bZuuQu390SN6OM9Sy93Ff2mUIcgZncIxBdZSImcvTYZWcoUyyr5eO3ZLMpZ01OCBmUw2mEsWcKgx9u0XwddDAZ9n/s2wYVyOiLHRyR7ctQZUlbBGGSm7e//24LPWVDi9qqg7VYXiKqVpk0pmIdijjk/UK5nZ9X/UydaagYVzNsWBkoiOTR5G7G1/t4MimSFHTG1STJgzPCjYlSkV3NOHFt1Q+mKZIkUmn7dY/HqqLDYZ8f8okL7+efTEdIYg1iidWkdvWqN0vbaCX97JzqcjEHpz1JHJIn6Mw0HSrk8wm6rrumbcI8qHZPy9y5bhTPE4j1DV7FM1PKpZNsSeD3NfblWrZeqf+zWkwqJLcsvzpHLnooIhVT57FI2glY/bgDGoEukIw5rJ256PgkPK5YVccTu92UXpsWo+zWO/P+FJKSNHZFCQL1/vyJApOOfp8XOx2d4OC1fjz9sSvS3zxZ76YbTeb6V278GSeug/IKA8kLOBivFeFkaWm1D0a7lPkKrK+KIuyiBPiL1r7lE1Uv/G5XB9pvhnKUm8/k8HMnEzIX4yZ+VjQxN5ThdNyvqDStbTh8V4sjazRqGondbxSZdEd46hEkmZO/SoeyFjo+bEeki9EhjS1j8/k0BfDvfmpZF3+Y4Z11NQqm7A/cGXM3m0Vme3YEzQYFWUVK5nRL7jZWgwq+f3IvdHUqmjXUJfFzckqnu3AuOEURdWxaFsPZaGSIrE+hqdkRacGdNnE+Qj/1n68mhz9sfG7TSS0jMkl0VxhYqPC2MSzhdsbZdAoOSmdknyaF0ZEU6OB43N2w6wLJSaFZ1b2t9qmMEJNSuOg2hN1211tJTtTppdY7mLrlDMtVO+NbRjv7W3kIItNp5K92fmJXO+rRSuR1VI/lJDJaJY74ethselqd0l6+wPUo7jbG7Vave4w/UNcE0v/dSB7J+5NWimjXpzIK69YE1rtqe0EEq3qviIAAAAAAAAAgP8X/wAgtlS+S1NocAAAAABJRU5ErkJggg==;" parent="1" vertex="1">
          <mxGeometry x="232" y="252.2" width="60.8" height="60.8" as="geometry" />
        </mxCell>
        <mxCell id="I1iFkmquDHzmgoYZS0g_-17" value="" style="shape=image;verticalLabelPosition=bottom;labelBackgroundColor=default;verticalAlign=top;aspect=fixed;imageAspect=0;image=data:image/png,iVBORw0KGgoAAAANSUhEUgAAAOEAAADhCAMAAAAJbSJIAAAAnFBMVEX////+TB7/PAD+Shv/MgD/4tv/VSv+SBb+QAD/uq7/dFr/w7r/9vP+RhH+SRf/TSf/v7P/aUv/187/8Oz/yMD/+/n/RRv/29P/c1X/0Mf/6+b/g2//rJ//fWH/5d7/lH7/qJb/h23/fmP/Yj3/b0//loD/oIz+WTH/lX//YDj+jXX+gmj+Tyv+bVD/tKf/iXX/HgD/dWD/oJD/ZEVgNt+OAAANjElEQVR4nO1da2OiPBM1CUqwhHop62W9VVttbbX76P//by8XBYkGkkkQ9l3Phy1r25RDwsyZySRpNB544IEHHnjggQceeCCEPx68OIv37etyOgwxXb5u1wvnZTD2q741bbjNznq6QowGYAHsGOFl9BFaTdedgVv1bcLgNp35keGAmEcIug1CvIAqZse50/zLaM72X5ugizwRNY6oF/To5ms/q/q2JeGOPlpB18mRu6AZdGbrY1T7rvRH25Y6uwuWre2ozuZnMH+G00tIoo9B1URuo79fYU16Z5J4te9XTecKszmingF6MWyK5vWyO72hme5LEXRku1c1rQSjYeC7zYPR4ahqahFGb6XwC2HTt+o5DqbYLolfxBFPqzWs7ra0/juD0W2FKmBSOr+Y46Qifr0uNWs/RSC0W4VZ9d/v0oExbPp+dy032tC78QtBN3e2qmuDAkYONl3fkV/z874dGIN+Nu9F0GFlukAxbObch+D2Tib0GoRu78Bv/FbFCD2Dvo3LJjhA9/MRt8BaJau4Dr63DeXh4U6ZBBeVvYIpCF2UR/AdV00vAn4vi+BrlTbmEvS1HIJfdSEYUPwqgZ8/rQ/BgOLUvBKvFcGQommCNRqiMUwP1NoYmRRmzc17/QgGftGg01jUww/ywAtTBDs1UDI3QQ0JuAGuKUFEsBEZPm5VLbbF8Fomgqk3hXCJREgvk48SZH7m4j+XHyqAvekT3CqYUe/7OUR0p+HlNyIo/igBIfHX+LHZ0fU3QeQ7/qoM/ai/o+IncN91Xd8JfoW9+uFll/6EX1PMKH6KvjMP2/U2/ejTX96xEX64BOR/dK1NU2laEEdisRP4FvYT/XqXf8R9il/iq9A+W6cc6C+7G339DcgfEKaXgftUeqoqDJ8wYu340v9lH8EMkf2pQ3CtpmVUGDbaDI9NMEQ6qeKRoliLGToWpfj3ieE826KbMhz/OU8p+TqjNKQITvi7G0VPGDNsLgLEPLpsN5lMFtEd+JPFZHJgCcPG/hziafZhYLCgM4wfqnob82Fp17MppVbUWW54SVHKMIEuQwTV4D3lgOIGw+gGYoatyCyXwRBR2PxiV9k7yTM8V5Y2zTA8vceKmKjHhPIMR4fo+6O1GYYIMhHeB4RM8gx7fyJPwRYZhv9ZMdSlPqHqZWJbwPNM/CE5+0MRw4G1C/49WFmGbj9GS/3hMmV9OoDkLc4MCWG/C/oQ432jiePvJAzPADBEVDVUnEJeiWtNI2aIaL9rG2TIFNOLI1BmRokh8RgyyBBhNWXzBprHxo0chv6JYXQjg/gJnkzgL87agxjaSsGwqiA9gTqdAPNggHvD8KrzGd0qew2vHRT/Zx3+0CF+CaLvOA7xPjvRr8ZwQAzV5OkQWIpAcYDo5u3w6uxwGP8fen6C8XfCec8LAFN79lCeoLpeqwUUtNuw2rl6KJh0J87qmeIuBpatDZ//nV0YdOK8mFyIPqprjrsIBMmp072ynSFWOVB+0nQvxXClKu1JqxljNmsahfJg8lYyBAfqdoaWU4ntAiJUGf0NsDO4nGKzsfqzlrE1PkAymZnkugJgNJFWcY0GRJLeyC6ZwAvAL0uIU1BsX05lqwN42MWxvguKrxelMFwAGJJWkdUDxU2snFK6d4i2KhymH5BWT1kZ0wAlFwutKSy8BiVkCwFKNJBWfqOwsIJ4pTCEVUgUBBjqmjRutRSGsCCuQJt+wQInqxSGFuheWG5Jn7uBBU5WGUuv+zCGJHc2sQlM0FhlrNdpwhgimnczEBURQjEbKwdYVjrMaeY0Cs1f5DYKBfRx53rEI7CErZR1rIAJzAhejnd2odsG8LINtwBAP9lGQKINhXOJYlPThKYRGVeRTAkA9CPbyCs05YfFpkapiO0SfEId5HT4CGUHXeWYU+q2hj41Lzs71mhDbg5zYgRqFBATF0lNoU+NbLLJgx/Q/OpTpg0fqD6CESWeLFXOI57Bp2IV6+Fi4OzESh9SURtBnFP04clums22gQw9ZyDG4AkwgkTpqDF8voK7uyeIUeZykmDDjggTZTdB9Renu8vKth7k7riSGKhoQzl1GS8aDLNWAhJIk+esowaNgxhUlN2ECkF0Jdv6aUsEy+I7+/ZARRvKkcmQ7N25zawLcpPd9oj35EgiOwxg9vh0NwsBQ7DDT6pLzvA/E79zVesmC5BPPd2NKLsJSXef21xmm0orNy3orM1S425EiW+w1L2OWNLbs6Cb53Thi5H4QMDEU+OzlOlwAG8QACsbihkuBW2CZWkAmn3dDomZgAbHvkZNj90WNAqthAphZZ1ZmneFzmm4GiUvwuooHYacbEvFg/B5FgAu2spimDUoqWzzgIt2QMKvVIZZf532AEEwhhqiTcwQFJmfwM0W9BNbShjM5QNnUGKGojdDy5YeMk35dmLrvV1bBjtOSx7KYKjhD6/SsBfezLNlwGdpdIrrhP5QQ9NcPTblhAj3Imu9MkJNo6FLr3IjyjfIT32Ac0YoR5dCk8wheNmmHBlY3NSthmgTpxM14kNEiGZb/BSkrcFQGB9qxPhXC4+U2+KELWTZVdqWKMbXyNNcFQioOmxeGGhVYgvzNBq5thzZJgfeUumINnGubayzJzdXvTdWnKLmhZbOeBLnSzVy3leyzf0jk15LafBlVTqiTZzz1vJBvP16ksFFGMlNHurY9ZxaaB1hKrsSIIO0RpbTtXqiTTz3pJFOLCjUESCtkeUrmYClS/GtiOcPwXPAYbOQWH6fMORlqc7CpJw5YJ3MAT8NLIX0beOcja9jEnLm8cG1GCg0YNlc1DhdNiEuCUvfNu6uXA2zTlhO2ddRJwbOtnuwzi4hXrB9E+nbxk2x9nVMaV61q44F4yY4nWTE5+QTk7FISLajAUstEuRadR3tzecTU4aiiLvRSMYi4abWAEstEuSWoEFrEyOG2RD2Itu2Ef69NOfIOWnIUouEYV5tIrS+NGKYfXSz9GFR4d9LxKu9y37DgTPMry/VcbScbLsoFhFWEKc1snwJjIZoK5AeGoKXMygXBT/CCuK0RpbPrIAWRcQoqPPWCDz56CAt2uJTMAnSIJAXWvB9XAoXA8M3SfS4VynNtrGvl1u92H9JN9/gHzx8erRovYWGR+Sbvsi+Mkzbk6yFGyyGFKc/QTlZ+gy2eHwYdgXgfhEhuEUXh8yzsilGPy+xlXOffhCmGfnEZ0s1ammKSs5Ba9dicCbzymgRhnF70lvsrOsjzPhif2CZvszaNY3EN2cyb2bbgq6kt7Qv97uqWZ4UEnsNwYeplc1wDVTukut/uGiTWEMKWQccg3uXlPqBe4fBVXs5SagUYGfL2UNfgSG/+A2cbJDKFoFHCF9XYmHZZ8Xwd/ZXwVV7cqvKoQkExqXLxs4SW7RghoXY1KK/O5wigKbE5PZUAGvTW5J3sNgRLDz9yguc5HByI9iBBgCS+2JA9zYRVED0R+vVDQ8YeEdrtR7dFuVD2DCS3dsEqtxysm39zuvzxSnI4enG6GpoXgC41EI6Kw0MMDxxLB9isF9GWs2jlv3fJN8iqG4Ne4L0HkPAdCyfT7yG2zsc/2wOhUdTA3OJ8vtEQff6oqa2OAEutVDZpxXWiTm5ZjXAcu8q+7UBxamxtbIw0aa2JTRoOwN+dgUMkGhT2zcR9hQl/W0xQJpDdQRB9i81do4mZKmF6v6loLoM0DTwLUCicOU9aCF/BTQNfAuAIkn1fYQbrnpREp+aB2OnLGkge0EDYjTitff6Tn+2b6trNtiaB/U92VEQ7Hnbm+lfOfSffph1M1VV8HdhWwDBtFsQFbHhArCBm9877Oh1lCUF4L768LPIbIq9347KVoN9Z2lTQOedCEJ34vKBQUyIKMAtjiIidqP3T4tqFEnAz7fQSfFHf5ni5/Y+P2ZrToYEM70zs+BnlGit44wRJprsucD2BHaFFqaqJAhqSamVgRO4gwFLd1e2Z3ToQu1KFnpnBSme9yQECaeelp2zsxw7U3J7/gLQtOZ5T1qlbvytYOu47sV2RXtoJtA/IVDl3LVCBF3JxOlTCEyctq5ydt7dYeLsvH/g/MP//zMsTVobwzB1Duk/cJZsbY6Nz8LkecD/wJnO/8C53P/A2eoNv1YU6RS6KUweajRQzQ/RGLUxN6aNTIqaOA1czgbpERY1OGWdlLTH/QkdXLUM98Bb+khigKoNphgq5yyNC4y7Vdob+lbOcShZbCt7GYmJiF4GDjOTRFKFzUp+BVM0P6sYqfSzjH3RRVgbTSfJwDM2hy6J0ea+3Ug3ZWz7ngv/3VBKVwY2fS9DaReh171TiorQLnRrQl1M6D3cPytlT3tJuNvSOTK6LePwDHkMprjM19HG09JVWiFGb6X1I6Nvd7egNzEalsKR0WE9+IXoDY1Mdl6AMDysyoDexmyODPpHm6K5dM323dDfH810ZNB9x3219lOIwUdLp2okpkdbH9WbTzH80VaDZEhvO6pCnynBHc1bWJ1luMqkNZcqMaoDZvuvDaWygTLxGKWbr4LaotrBbTrzIws60/aER3GQgFvQdew4d5p/S+dxcJud9XQV+O4ALMB5s9LgMvoIrabrzt9K7gL+ePDiLNbb1+W0PRwO2+3l63a9cF4G49oblQceeOCBBx544IEH7oT/AbS+F9sp5C/hAAAAAElFTkSuQmCC;" parent="1" vertex="1">
          <mxGeometry x="162" y="253" width="60" height="60" as="geometry" />
        </mxCell>
        <mxCell id="6p-bFxe-tjWp9Cqry7o3-8" value="" style="shape=image;verticalLabelPosition=bottom;labelBackgroundColor=default;verticalAlign=top;aspect=fixed;imageAspect=0;image=https://www.islandbabygirl.com/static/52b4ff857ac30b3b649d0aef0a29f86c/e11df/live-server-2020-11-29.png;" vertex="1" parent="1">
          <mxGeometry x="135.55" y="548" width="152.9" height="152.9" as="geometry" />
        </mxCell>
        <mxCell id="I1iFkmquDHzmgoYZS0g_-1" value="TRANSBANK" style="image;aspect=fixed;perimeter=ellipsePerimeter;html=1;align=center;shadow=0;dashed=0;spacingTop=3;image=img/lib/active_directory/windows_server.svg;" parent="1" vertex="1">
          <mxGeometry x="985" y="338" width="155.8" height="190" as="geometry" />
        </mxCell>
        <mxCell id="I1iFkmquDHzmgoYZS0g_-2" value="" style="shape=image;verticalLabelPosition=bottom;labelBackgroundColor=default;verticalAlign=top;aspect=fixed;imageAspect=0;image=data:image/png,iVBORw0KGgoAAAANSUhEUgAAAacAAAB3CAMAAACQeH8xAAAA8FBMVEX///8AAAD/qBf/AAX/AAD/pQD/owD/pgCysrL/pgv/yHn/7tT/ysr/v780NDRMTEz/r6//UFL/uFWWlpb/rRr/jo/CwsL/qqv/37z/+vP/ubrX19fz8/M7Ozvq6uqcnJyNjY3h4eF3d3clJSW6urp/f3//0Y4ZGRn/2tvIyMhnZ2f/9ulfX1+Pj4//tD3/7e3/aWumpqb/w27/KCr/MjT/cXL/gYL/3a7/2J9HR0f/6On/6MYRERH/KSv/HB//9+3/8d3/P0H/yoL/vmL/V1n/ry//05X/nZ7/t0b/YmP/Rkf/enr/2qj/tDf/Vlf/1dYOZLZGAAARaklEQVR4nO2de0MaOxPGV92LwKm2iBYqIihWEQW1KlqsUi2W9tS33//bvJu9ZGcmk73Yo6Dd549W2YSl82OSyWSyNYxcuXLlypUrV65cuXLlypVrhvXh++dpf4RcyTozTfOfaX+IXEk6MhcWTPPNtD9GrngJTALUh2l/kFxxOvMw5aBmXO7ctJCDmnlFmHJQM6wjgCkHNbM6gpQW8qhvRkUx5aBmUiqmHNQMisOUg5o5/WAx5cHEjIn3Jh/U22l/uCQdr0TqTPvDPKn0mF4CqO25SCvT/jBPKbxuenFD3xLgtDntD/OEisc0+6D+Ek66EOLFgPo7OMXNTS8D1F/BKQ2mGQf1N3BKh2m2Qf0FnJLnphcA6vVzSo9pltdRr55TFkwzDOq1c0o7N0Wg3k/7I7N65ZyyYppZUK+bU3ZMszr0vWpOj8E0o6BeMycGk2km5Pn8RrMXnr9iThymhevrhTSgpuNR9Uarrrmk59ToLB4vttd1HWdebC2EGyO8TZXre2ZQ9fbORohhaX9xXWnAc1rbAvtSy5uNDHccVS+Kd+Xy3cntYFhL1+FX8aQ8mZxcVEcZ7pMkdt2UllNC1Ld5uSzVyvSpmlHPpejV9vIc1SF5X4ZTo6n0WlpU7nhTiiRfLN1WbNuyCq4cy7bt3v0o9mPXBhPHbeZ3cH8Yf5Tv1Q3ee1itVofKjahKJfxx6vzyNjWneFAdYBrVMo31UMql+lXU8TJ8bUUxt+8ea7Cnwqm+w/a6opPXwHakuv5Lw7JlzSMVbGtS1f5zR7fzdgF3sKzJ0L/4MXh/Syi4jz3UvFMVfBi76L7wDw8jPadYUA0w2hwoV7fkNaWQYR1Y9Nh/aROgo6QAaMqps63rtYT4upwi63qcuicOMXqAqjxi/7E3xYLFtbdObnxO6jXrRGO4Owc0KoWcguDONGWU53OCQV/4s6lEgnGg9iOz7NJr9V15TSlkgK7jDWydjbk4NXWcND7oawvGFIBTRXCqznNWF3IK98w/dTDWtbcqwm0+cpcd3mzdCuD8YASczIUvn65d65+enZ+f/fSReZyuxesBDP9n0/xydHb0BZOKAXUMrEJHN+AzG7Qf5bsYS8nVcmhyzGlL28G/LwgoqpjTRzqCQdnlG/KBaycx7QvOQMPJHrBm+wV8z/4lOb3r9z+Yp2/7Xpvf31wKPqfzfv99yMn92XWwa69R/+01AaWL+hrAKMfkGvyqk2C5EbnaXNP9XQ0EFG23GE781AR0FX15MKdbZpQCsnpd9IG7vYT2A55TocyabQKZdyNO7t9fo+PS303T57RqGB9CTu7Pb8zrPUFJwFwgoHRneEGAtkwuHQB74akCTU8dI8krkMkhJ+3UBCRBQU439/FmF6CgR420Y14op3TPNrGpYwqVAKZgCgs57bmYPpz/e+7Ze1XHyXWbz0en3/ZEEzxHnWk4HQKT4CsNGBfsaHvtpsTktmxRTml0FQ59gNP4wmFMSkBNosVUdxwzRvoqTIpsG39UI4IhhzVEnFwAX70QwfOrnxpOfbHcMs2fbmsyRa1qOBHPAOoga+FewNUOjM20Jl+qP4KTdHPAaT7R7MLCMlar9ZKx6t6y0GOMBrCH1yWnfjDlmNd9QYfl9Mk1xDvR4ejfc3yK7bqv4QSCOpLGwXMHyhDA6WltfY5oY7PdWW+sry0qfnbwGE5hsFnVDXXuirXAWVm6wgnT0+3E91LeZaTYbAhGSPuecJLrXW8I0/hTXXQwTRqb6zEhHDiqw6kFtAoGrra7TpZNKzDkWCTR+rGO0+VKu1U3Gp1jbgxdj+Fk2c5D+eRuItISykU/lhjQjgXb61S8e7DjgsbgBh8Vk53AO3Uxp88ygjOv3ZHvG89JpMf730/JCioOk9EGBoGvt7CttuA1EN4tY7fbollUErC3WE4r0FvbykpsWcvJrsg8UW1YdEgLf4q/IZOTuw6+CPNBtcEdgxdrTJOGNfB+zp2BOf0DVrQiTOA5BQeg+t9huGeexmAyDGAQGNWtEWPBLsDVDlAjEhYKtS5hg32Gk8L2mLbo8Jys+Qtkw5uPJEHhCB5FDMLu4VzQiFtYPcAONHdUtZiLGTmZP/wAvP8zav41/gFIwNKH4GU6AIFVcCuanq52YRv2nEwDDaDrire01S4tErAfsJzsky7tOJogKJb7bR9hCvatcrehEg0WivBNiqR9GUYR4RdFxuXSQ0zTtfs5z0lkjU7PxSJqTyYqEjDBby+coKg9QZDRmePFWFyx+gHNqDMu6EY3xOtERE852RdMx1oZgxoZt+gFh8svdGk8aN3CRW8FL6FuYC5CTl4yjngnOX1zf/sZctoLcbz3/cnTd0PuWiViMlrAHtEIpERxIE2rySLsMG/uCXEl/NUsvacG9igR8hFONpfDo6CsewN1cvhceq2HPcq6HUEYmC3MGbnfg0CSUzjweamFvh/vHbmvLwTZV9eJ3ly/+3lqBh7nL3STMRnGLmc1NWEXdeBTrrv6jVj9QnhL1wX7rNjiwpyU0SjUDbL5eAh7sS4oNKoUyJs/gMHtDrXtsVeide7bwFlETPfd5/Q1evncEPmKYH0roJ176drTFA/nA8mFyCXCWWtJQpGTT4vfwIgpdmjpMG3r2WKnbRFOBSUKkyrBQaxQ5oIzVQM8XBaR1zgj0FLjaREnY+/8dOGLN/m4Qbq/ryGChg9fFxZOvTzrm0+Gn4/4n/v3NzMx0gsEvrrR1mw47uzI6asZXqKRYGRKrQ74LkrqF6iBIpQ24aTJY3sqavc7RvpOd2i4LBo38GZwiEVpwOjLEnL6DTLe/a9Bfi8A6Ol9uH56syr+/C2S6nHrJiBgj3AhI9kdy4lKpmn5UexS8+aeNKmlmKGS3GaH5I0mMR27miyRdqgUGjmkJVjMoruBnScLxI4y3vOCA0+/v7gI3nr7ud4M5en7tdc2TIuL8ND8lA4T3EwKv+DSixrRgic0Kp/l3mgv6qXZ99BGHkIoklnGnGz93rqhdSgmAwR0B3PgRTx8WlGdBJzv4BuCuPzT+9/9/t6Hb94M9GN19Ye3hShe/PzhnXm9ei6GvDNB6veq8KZUg54QSEmE83q4OL0CFIOwu8Xb/DFiY/JQdRiuXGFOY2XlBMVnmKK1DiuYXfI8D+wxAU8satwMcEKJO7TNLn72XxB/XHt/pscENwuXfKepA25t8LMQoKqviEin+FK9fdgUWb+gDwiEaqw/WeoKFwqOlh4XGEnIqKUGhj00R6J1LlsES3OuAbAUAbkU+Ob60YAMFRaB/2z4ZgXzRpp9vhhtx38qNFjWIScmN4o0YdPnMaGHgddQHidYA2GF4yz0Oht2V/MRqZQJE5zmN7GJRFwhE3Q+w8iJlrLvUSDFhh5kCdeCnBJMbpxwkYStL8bzdEfHORhJlJlGqBbpcZyyYYJT9r73gnQU8YtcyXhBRitqu4NSrP85JxT/ryNOurK6QOwWOruDDlSM4PqcYMhQ8CfELh9cGI/klBET3BTaFh4kpycvIJMxuscQfMuZ6tdMUqqYsGI4JbjGBRdIJHKK4PqcajCS+EXfuDBGvT1Op2/fr2bglCGECLQFDQJCBS/Ek2HGUgM3Nf6QU8L8hLY3Wn/uT7ExIhosg/gOFMv4RXowVU5yULLOMgOmL1kxwZRE0wAjnb/sldkEwTBqealNM6RVfLy3g5tmmJ9uWU5Z5yc0ynm90WIYY9fULcdhSru8BQLpaZF2CEOF4Asvo4pDND1t6hLnqRV/9AB9C4ws8V75EfHezThqGq6XoIuJWwL+NFeYmZP55TEHiCKb7Laiga7pX4SpIzAYraOIbD/lnVKfU0NbG9tZ1k8GmzhKWD+NgA+GnGAk4ZDQnQy9WTlln5s8AYt3IhZBvkDWJLkMweITbz4kBG9SkJN69AAIhREHWfIRw8fkI+5pPsJVDez0unMiqDNSysUycjK/PgqT0YpMsiNDhavQMyWcjgHboa/8dsqzZWjNFTfwoSDlOEt+j52ekiaoCcnveQLw3NfAMKjsUmbj9FhM0CqXcnqSLiLXwTuAZ9vAtoxN1kVCnGISsXijsEPy5XzZt68uSykhXz60uJZdtAsFZrD5EemfiVPmdVOkKEmzK8dAeZpG0rkE05O4AEPn2EEsEs5h6B0KraHFmRCUXXViInN0RABGFE6MQ6HQIyIKgkC45ajuOGbh9HhvQikJacmofCgc33ajTKC3HQXcS1NtJFRfi9TBnLRw8Y6VSAHj/Vz9ZPPf7OcG0hRLq+NuBk5/gkmp8JlDm+JMAO7vVMHYWbtsRYlvUlzR5LuQkqaOodRH6E761VAS1oFhnL4+ggyVYIRkQ8fCg/ItSc/pkZFeKBUFOGfDHEPz6/mQPTXOgfIKTZoTZGNzUu3klQPQeiN+tiH1RrcGKmvRDZckwQ44saeimPVbak6PyEIgteeogAXrysXQeVBUxq6hsGvUlWKlptqFFsR6vqvU73EeVStjrxuR6nK+MGxCYABOIzZVOFLe4ne6hJH5h97EoYDnQJVRsRlcwBSW1TU2nmiOmbrlDRJMrFOX8wdgtR52rMQFw3mlHtbA1a6MG5YqdHCDkWFPzW2wy+wzM5XO4ymk0D6xzhK0uVLg0NF0I3WTDZwCXObPaxyAmH5NTRr676nuphfskxG8WemONPF2I8hxDauCXWpUVOvLIaeqOvDxGajPb5K1l4GHTnSwQYMYrQWLYoz6Lr6yuyn9sN6hpUkt3bmaq4OVtU5nbeWA2coP5kmu6sFyyoOSmNNro+F9zyF+ESxGyeRTsMb3pWA7qTQoO8wEBDnV1MuVVI99eSo1iHmwZ1APiK4oFc5z28vNzc3m1qWyLS/mmex7wMGwqKlOsQvjXq83nncUtwjrTErKBdsZ9yblSW+sdlI4qdmNhEThk4upvY9Epn9Y8q8cg9Fph7lLssJbac8Tzhf4g4GFcPriDl2LB+doz6ghTgrm+Pqyp9chMs8GDglwOHCFIKZ4KoGQP5ACTldp9q9k1FnVpRl0xo5mEe7gpwIOlq2gYIOOm3E1ns8hHLptxV0kjzBItQ+174OH/kTPOTGKjmRBTj0mCiOywRqHROssprKy7x6KBCJJm5RPL2QgeuAFXaTP0UnhUWHKFXLSnqSSAms4tP80TDrBbqOlaDIo9PwIzKk7Ri3tqUYRQijEptsU+FQg7Zr43BxpcMiprjtTEAp+WSCnsmaPKTIm3XdIGPps9DwWkllHddDahNXzCRr7Mu5A9Ia6nG3F1ojtRmAxJ4Mel4faQN8VzMn9VT/0WUyhy33s85CqRgynEsoRJtTQPINgSkLZGYLhN3u6rK23ODz3SzgZdbq+lmzJMVLCyRhVNC5SsO+4oWn0oCNlexseek7oRO6YeevnFrChetYWrGc1OxiLfFiwg9wCtvHdssOVl20oB0IpJ/H4Gm6Nak903/jBmCNl2cWa/25pOGlT7s+pzmH4PzweqhcXo///UVsps6Y4x+UmabwGjtuEr6038apqu6k+QZPhZHRvK7YFTF+w7Eoxblwa3Fm4g2PP3478ax+dSignZtxLqAJ8Kap3mlvL257vLe0322lrn+qtxZ2t/YPl5YOtw3aD7cVwEg/qKPbEc2E9OQ/FxCf53gxuy5Wwgz0+GcgONSjU50RfDvayVW8I/ccPuGY5uap1h4OLi4tBddRNFzHXbkbVwS+3x7CbUMrsawQHyelHEbMuHacnF5i42KeH5UKaFidUxMc/tCIX0LQ4oRKX0TPe+IVqWpz453rk0glsrD4nJxiUx5fh5vI0JU7gASBMOVguRdPhBCuXp72R+zI0HU7waGL0dLBcek2HE9jnyqOIVJoKJ/S8iKlv5L4ITYUTrI2YbjnYi9E0OJXyKCKzpsEJ7rgnnZfP5WsKnG5gFJGnYNMJVK44z8QJFmiy/yFKLlXDaL+18jycag/RHStOHkXkypUrV65cuXLlypUrV65cj9X/AfGdpmCZKbxQAAAAAElFTkSuQmCC;" parent="1" vertex="1">
          <mxGeometry x="1019" y="253" width="177.73" height="50" as="geometry" />
        </mxCell>
        <mxCell id="I1iFkmquDHzmgoYZS0g_-3" value="" style="sketch=0;html=1;dashed=0;whitespace=wrap;fillColor=#2875E2;strokeColor=#ffffff;points=[[0.005,0.63,0],[0.1,0.2,0],[0.9,0.2,0],[0.5,0,0],[0.995,0.63,0],[0.72,0.99,0],[0.5,1,0],[0.28,0.99,0]];verticalLabelPosition=bottom;align=center;verticalAlign=top;shape=mxgraph.kubernetes.icon;prIcon=api" parent="1" vertex="1">
          <mxGeometry x="1055" y="308" width="190" height="100" as="geometry" />
        </mxCell>
        <mxCell id="I1iFkmquDHzmgoYZS0g_-11" value="" style="shape=flexArrow;endArrow=classic;startArrow=classic;html=1;rounded=0;" parent="1" edge="1">
          <mxGeometry width="100" height="100" relative="1" as="geometry">
            <mxPoint x="852" y="392.5" as="sourcePoint" />
            <mxPoint x="950.89" y="392.5" as="targetPoint" />
          </mxGeometry>
        </mxCell>
      </root>
    </mxGraphModel>
  </diagram>
</mxfile>
